 <svg  version="1.0" xmlns="http://www.w3.org/2000/svg"  width="300.000000pt" height="181.000000pt" viewBox="0 0 300.000000 181.000000"  preserveAspectRatio="xMidYMid meet">  <g transform="translate(0.000000,181.000000) scale(0.100000,-0.100000)" fill="#2563eb" stroke="none"> <path d="M1020 1725 c-20 -24 3 -65 35 -65 14 0 28 7 31 15 5 13 60 15 404 15 341 0 399 -2 410 -15 29 -34 77 -5 66 40 -5 19 -13 25 -35 25 -16 0 -34 -7 -41 -15 -11 -13 -68 -15 -405 -15 -340 0 -394 2 -399 15 -7 20 -50 19 -66 0z m58 -24 c-2 -9 -11 -17 -21 -19 -21 -4 -35 27 -17 38 19 12 42 0 38 -19z m870 1 c3 -16 -2 -22 -17 -22 -26 0 -36 17 -20 36 16 19 33 13 37 -14z"/> <path d="M2053 1650 c-17 -20 -30 -20 -708 -20 l-690 0 -52 -24 c-64 -30 -122 -87 -153 -151 -20 -41 -25 -70 -28 -162 -4 -110 -4 -113 17 -113 20 0 21 5 21 93 0 118 19 175 76 234 87 88 37 83 820 83 606 0 693 -2 698 -15 7 -18 57 -20 74 -3 20 20 15 76 -7 88 -29 15 -49 12 -68 -10z m64 -26 c3 -8 -2 -23 -11 -32 -15 -15 -17 -15 -32 0 -21 21 -11 48 16 48 11 0 23 -7 27 -16z"/> <path d="M2196 1632 c-3 -3 -6 -14 -6 -24 0 -16 9 -18 70 -18 115 0 204 -58 251 -165 18 -40 23 -69 24 -145 0 -86 2 -95 19 -95 17 0 19 8 17 100 -2 115 -18 170 -69 233 -41 51 -122 100 -177 106 -97 12 -124 14 -129 8z"/> <path d="M910 1393 c-7 -21 -25 -69 -40 -108 -44 -110 -228 -578 -236 -598 -6 -16 2 -17 84 -15 l91 3 26 75 c14 41 28 80 30 87 3 8 31 13 77 15 l73 3 3 61 c2 53 7 65 32 89 28 27 45 24 18 -3 -6 -6 -9 -14 -5 -18 3 -3 17 6 32 21 26 28 48 28 25 0 -10 -12 -10 -15 3 -15 8 0 17 7 21 15 4 12 32 15 165 15 l160 0 3 -45 3 -44 70 55 c39 31 71 58 73 59 2 2 -12 12 -30 23 -19 12 -43 29 -55 39 -69 59 -63 58 -63 5 l0 -47 -156 2 c-147 1 -157 2 -180 24 -18 16 -24 19 -24 8 0 -8 5 -20 12 -27 9 -9 9 -12 -3 -12 -8 0 -20 9 -27 20 -7 11 -17 20 -23 20 -8 0 -7 -5 1 -15 24 -29 1 -27 -24 1 -19 21 -25 25 -26 13 0 -9 7 -22 15 -29 20 -17 19 -25 -7 -60 -18 -25 -29 -30 -66 -30 -38 0 -43 2 -37 18 4 9 24 68 45 130 21 62 41 114 45 115 5 1 15 -22 24 -50 15 -53 16 -53 57 -53 28 0 46 -6 59 -20 18 -20 59 -27 69 -12 3 5 -2 21 -10 36 -7 16 -14 32 -14 37 0 5 -9 28 -20 52 -10 23 -32 76 -48 117 l-28 75 -91 3 -91 3 -12 -38z m80 -17 c0 -7 -10 -17 -22 -20 l-23 -7 23 -11 c24 -12 30 -28 10 -28 -18 1 -48 25 -48 38 0 11 38 42 52 42 5 0 8 -6 8 -14z m51 -3 c36 -22 36 -29 -1 -48 -36 -19 -40 -19 -40 0 0 8 7 15 15 15 8 0 15 4 15 9 0 5 -7 11 -15 15 -14 5 -21 26 -9 26 3 0 19 -8 35 -17z m70 -61 c6 -20 15 -41 19 -47 4 -5 14 -32 23 -59 l16 -48 -27 7 c-15 4 -33 8 -40 8 -8 0 -26 19 -40 41 -15 23 -32 45 -39 49 -19 12 -16 25 7 32 27 9 61 45 53 58 -3 6 -1 7 5 3 6 -3 16 -23 23 -44z m-181 -27 c0 -8 -4 -15 -8 -15 -4 0 -19 -32 -32 -71 -14 -39 -29 -73 -33 -76 -20 -12 -18 11 7 67 14 34 26 69 26 79 0 10 3 21 7 24 12 13 33 7 33 -8z m60 -9 c0 -8 -14 -45 -31 -83 -17 -37 -29 -70 -27 -73 2 -3 -4 -6 -13 -8 -9 -2 -19 4 -22 13 -4 9 -1 15 7 15 11 0 41 67 62 138 5 17 24 15 24 -2z m-113 -204 c-15 -16 -15 -19 3 -30 17 -10 21 -8 36 23 9 19 21 35 26 35 5 0 8 -3 6 -7 -2 -5 -12 -27 -22 -50 -16 -38 -36 -57 -36 -35 0 4 -13 16 -30 25 -37 22 -38 32 -2 51 33 17 41 12 19 -12z m656 -7 c8 -8 18 -11 23 -7 4 4 1 -4 -8 -18 -30 -48 -84 -25 -56 24 11 20 22 20 41 1z m-703 -29 c0 -1 -10 -23 -23 -47 -31 -61 -60 -146 -53 -158 6 -9 -23 -25 -31 -17 -3 3 12 49 33 103 21 54 39 101 40 106 1 4 2 9 3 12 1 6 31 7 31 1z m110 -74 c0 -4 14 -16 32 -26 l31 -19 -22 -19 c-13 -10 -31 -18 -40 -18 -12 0 -10 5 8 19 l24 19 -21 11 c-20 11 -24 8 -39 -24 -9 -19 -20 -35 -25 -35 -11 0 -11 1 12 54 18 40 40 61 40 38z m-60 -11 c0 -5 -10 -13 -22 -17 l-21 -6 24 -19 c16 -12 19 -19 9 -18 -8 0 -24 7 -35 15 -20 15 -20 15 4 35 25 21 41 24 41 10z m-65 -92 c-4 -5 1 -9 9 -9 9 0 16 -4 16 -10 0 -16 -37 -11 -44 6 -7 19 2 37 15 28 5 -3 7 -10 4 -15z m23 -51 c-5 -16 -48 -24 -48 -9 0 8 17 16 43 20 5 0 7 -5 5 -11z m-118 -68 c-13 -28 -27 -50 -32 -50 -12 0 -10 6 18 61 33 65 45 55 14 -11z m76 8 c7 -11 -29 -48 -47 -48 -18 0 -9 22 11 27 24 6 26 19 5 27 -8 3 -15 10 -15 16 0 13 35 -4 46 -22z"/> <path d="M1494 1419 c-12 -20 16 -57 40 -52 31 8 48 33 35 50 -14 16 -65 17 -75 2z"/> <path d="M1585 1420 c3 -5 17 -10 31 -10 13 0 24 5 24 10 0 6 -14 10 -31 10 -17 0 -28 -4 -24 -10z"/> <path d="M2062 1405 c-16 -34 -15 -45 3 -45 18 0 37 34 29 54 -9 23 -19 20 -32 -9z"/> <path d="M2110 1420 c0 -5 14 -10 30 -10 17 0 30 5 30 10 0 6 -13 10 -30 10 -16 0 -30 -4 -30 -10z"/> <path d="M2185 1419 c-4 -5 -4 -21 -1 -35 5 -20 12 -25 33 -22 34 4 51 31 34 52 -15 18 -56 21 -66 5z"/> <path d="M522 1374 c-27 -19 -28 -36 -2 -59 11 -10 20 -23 20 -28 0 -6 29 -39 65 -74 62 -60 67 -63 114 -63 27 0 53 5 56 10 4 6 -14 10 -47 10 -52 0 -55 2 -111 58 l-58 59 18 31 c17 29 17 31 -1 51 -23 25 -25 25 -54 5z m46 -27 c4 -20 -25 -34 -39 -20 -14 14 1 45 20 41 9 -2 17 -11 19 -21z"/> <path d="M1452 1355 c0 -41 24 -49 34 -11 7 28 -1 46 -21 46 -8 0 -13 -12 -13 -35z"/> <path d="M1579 1374 c-17 -21 0 -48 34 -52 21 -3 28 2 33 22 3 14 3 30 -1 35 -10 16 -51 13 -66 -5z"/> <path d="M2110 1371 c-14 -27 -2 -51 25 -51 32 0 49 23 35 49 -14 26 -46 27 -60 2z"/> <path d="M2418 1379 c-22 -13 -23 -47 -2 -70 15 -17 12 -22 -46 -84 -35 -36 -59 -65 -53 -65 13 0 123 111 123 125 0 6 9 16 20 23 26 16 26 58 1 72 -23 12 -22 12 -43 -1z m39 -20 c16 -16 5 -39 -18 -39 -12 0 -19 7 -19 18 0 31 17 41 37 21z"/> <path d="M1662 1330 c-15 -25 -9 -38 25 -51 35 -13 37 -8 17 35 -20 42 -25 43 -42 16z"/> <path d="M1501 1326 c-18 -22 3 -56 34 -56 18 0 26 7 31 24 3 14 3 30 -1 35 -9 16 -51 13 -64 -3z"/> <path d="M2026 1315 c-8 -33 -1 -45 28 -45 33 0 50 23 36 49 -16 31 -56 28 -64 -4z"/> <path d="M2185 1321 c-13 -42 32 -70 63 -39 9 9 12 4 12 -22 0 -26 -3 -31 -12 -22 -21 21 -57 14 -64 -12 -3 -14 -3 -30 1 -35 9 -15 48 -14 64 2 11 10 13 8 9 -9 -3 -12 -2 -28 3 -35 5 -8 7 22 6 73 -2 53 -8 92 -16 102 -18 22 -58 20 -66 -3z"/> <path d="M1455 1266 c0 -42 8 -52 25 -31 14 17 5 65 -13 65 -7 0 -12 -14 -12 -34z"/> <path d="M1580 1279 c-14 -26 3 -49 36 -49 28 0 38 14 30 46 -8 31 -50 33 -66 3z"/> <path d="M2105 1271 c-8 -28 4 -51 29 -51 28 0 52 36 35 56 -17 20 -57 18 -64 -5z"/> <path d="M1680 1252 c0 -14 23 -32 42 -32 21 0 23 11 6 28 -13 13 -48 16 -48 4z"/> <path d="M1500 1235 c-19 -23 -3 -55 30 -55 30 0 44 21 35 51 -8 23 -47 25 -65 4z"/> <path d="M2032 1238 c-24 -24 -7 -68 28 -68 8 0 21 9 28 20 23 38 -25 79 -56 48z"/> <path d="M1655 1230 c-9 -14 4 -52 16 -45 12 8 12 42 0 50 -5 3 -12 1 -16 -5z"/> <path d="M1602 1199 c-30 -12 -38 -37 -18 -57 15 -16 17 -15 22 5 3 12 15 23 26 25 16 3 17 5 6 20 -10 12 -19 14 -36 7z"/> <path d="M1691 1182 c-14 -27 8 -55 40 -50 19 2 24 9 24 33 0 25 -4 31 -27 33 -18 2 -30 -3 -37 -16z"/> <path d="M1962 1167 c-16 -44 -15 -47 7 -47 28 0 53 38 40 62 -15 28 -34 22 -47 -15z"/> <path d="M2102 1179 c-10 -16 -10 -24 -1 -35 16 -19 56 -18 68 3 24 43 -41 74 -67 32z"/> <path d="M278 1166 c-10 -7 -18 -25 -18 -39 0 -34 42 -48 69 -23 12 11 36 16 72 16 51 0 58 -3 93 -40 l38 -40 104 0 c65 0 103 4 99 10 -3 5 -45 7 -96 5 l-91 -4 -48 45 c-44 41 -51 44 -102 44 -42 0 -59 5 -73 20 -21 23 -24 24 -47 6z m42 -36 c0 -24 -25 -33 -40 -14 -10 11 -10 17 0 28 15 19 40 10 40 -14z"/> <path d="M2665 1160 c-14 -16 -31 -20 -81 -20 -37 0 -64 -5 -66 -11 -2 -7 -38 -11 -101 -11 -53 0 -100 -4 -103 -9 -3 -5 41 -9 100 -9 59 0 108 4 111 10 11 17 116 12 137 -7 28 -25 74 -7 70 27 -4 22 -27 49 -43 50 -3 0 -14 -9 -24 -20z m44 -46 c-14 -17 -39 -7 -39 16 0 24 22 31 37 12 9 -11 10 -19 2 -28z"/> <path d="M1626 1152 c-6 -11 21 -72 33 -72 17 0 25 49 11 65 -13 16 -36 20 -44 7z"/> <path d="M2028 1135 c-15 -32 -4 -55 26 -55 30 0 40 13 32 44 -8 34 -44 41 -58 11z"/> <path d="M2184 1138 c-14 -44 31 -79 62 -48 7 7 11 1 11 -20 0 -21 -4 -27 -11 -20 -28 28 -84 -7 -65 -42 11 -21 49 -24 67 -6 9 9 12 8 12 -6 0 -10 -9 -20 -19 -23 -11 -3 -22 -12 -25 -20 -9 -21 12 -53 34 -53 18 0 20 7 19 98 -2 114 -16 157 -54 157 -15 0 -27 -7 -31 -17z"/> <path d="M1760 1121 c0 -19 26 -48 36 -39 7 7 -17 58 -28 58 -4 0 -8 -8 -8 -19z"/> <path d="M549 1114 c-11 -13 -10 -17 2 -25 19 -12 29 -11 29 1 0 6 39 11 93 12 l92 2 -89 3 c-50 2 -95 8 -102 14 -8 6 -16 4 -25 -7z"/> <path d="M1690 1090 c-14 -26 3 -60 31 -60 27 0 47 44 29 65 -18 21 -47 19 -60 -5z"/> <path d="M1940 1090 c-15 -28 3 -60 35 -60 18 0 26 7 31 26 7 28 0 38 -33 48 -16 5 -25 2 -33 -14z"/> <path d="M2110 1070 c0 -35 3 -40 23 -40 31 0 51 34 35 60 -7 11 -23 20 -35 20 -20 0 -23 -5 -23 -40z"/> <path d="M401 1071 c-19 -12 -6 -43 16 -39 10 2 18 12 18 22 0 22 -14 29 -34 17z"/> <path d="M2561 1071 c-19 -12 -6 -41 18 -41 26 0 36 17 21 35 -14 17 -20 18 -39 6z"/> <path d="M1660 1054 c0 -3 6 -18 14 -32 8 -15 19 -39 25 -54 12 -33 36 -36 51 -8 16 30 -5 63 -37 57 -19 -3 -26 1 -33 19 -9 22 -20 32 -20 18z"/> <path d="M1770 1045 c-20 -24 -3 -55 31 -55 32 0 35 7 17 45 -13 28 -30 32 -48 10z"/> <path d="M2024 1043 c-11 -18 1 -63 17 -63 7 0 29 54 29 71 0 16 -35 9 -46 -8z"/> <path d="M2315 1050 c3 -5 36 -10 72 -10 61 0 68 -2 104 -35 35 -31 45 -35 97 -35 46 0 60 -4 70 -20 23 -37 72 -19 72 27 0 39 -46 49 -78 16 -7 -7 -34 -13 -59 -13 -39 0 -52 6 -89 40 -43 39 -45 40 -119 40 -48 0 -74 -4 -70 -10z m394 -69 c12 -21 5 -31 -21 -31 -11 0 -18 7 -18 18 0 35 23 43 39 13z"/> <path d="M1901 1018 c-13 -36 -8 -46 14 -28 16 13 21 60 6 60 -5 0 -14 -14 -20 -32z"/> <path d="M278 1009 c-21 -12 -24 -49 -6 -67 18 -18 46 -14 60 8 11 17 24 20 80 20 37 0 70 5 73 10 4 6 55 10 121 10 63 0 113 3 111 8 -5 7 -171 -1 -305 -14 -56 -5 -66 -3 -83 15 -22 24 -27 25 -51 10z m40 -37 c3 -16 -2 -22 -16 -22 -24 0 -35 23 -19 39 16 16 31 8 35 -17z"/> <path d="M2104 1006 c-12 -32 0 -61 28 -64 35 -4 55 28 36 58 -15 23 -56 27 -64 6z"/> <path d="M2375 1012 c-69 -4 -83 -22 -18 -22 29 0 55 -5 58 -10 5 -8 11 -7 21 1 32 26 13 35 -61 31z"/> <path d="M1944 985 c-8 -31 10 -55 37 -48 28 8 40 34 24 56 -19 26 -53 22 -61 -8z"/> <path d="M1595 980 c-15 -17 -16 -24 -7 -45 20 -42 42 -32 42 20 0 50 -8 55 -35 25z"/> <path d="M1154 965 c-10 -8 -38 -15 -61 -15 l-43 0 0 -50 0 -50 54 0 c65 0 71 -6 101 -101 l22 -72 87 -1 c47 0 86 0 86 1 0 5 -36 100 -59 156 -6 12 -20 50 -33 84 l-23 63 -56 0 c-33 0 -63 -6 -75 -15z m110 -34 c10 -11 19 -25 20 -33 3 -15 11 -35 37 -97 11 -24 17 -46 14 -49 -3 -3 0 -11 6 -18 8 -10 4 -15 -17 -20 -48 -12 -74 6 -97 65 -24 66 -42 87 -82 96 -77 17 -84 26 -35 44 17 5 30 8 30 5 0 -3 10 2 22 10 31 22 81 20 102 -3z"/> <path d="M1770 955 c-19 -22 2 -67 27 -58 30 10 44 33 32 54 -12 23 -42 25 -59 4z"/> <path d="M1880 961 c0 -5 -10 -25 -22 -45 -17 -25 -30 -35 -49 -36 -31 0 -39 -7 -32 -26 8 -21 51 -17 63 6 7 13 21 20 39 20 52 0 68 78 17 88 -9 2 -16 -1 -16 -7z"/> <path d="M605 880 c-38 -39 -66 -70 -62 -70 5 0 -5 -11 -20 -24 -23 -20 -26 -28 -17 -42 20 -33 41 -40 63 -20 25 23 26 39 6 60 -8 8 -15 18 -15 23 0 4 28 36 62 70 34 34 60 65 57 67 -3 3 -36 -26 -74 -64z m-40 -125 c0 -11 -7 -21 -16 -23 -18 -3 -33 23 -23 39 10 17 39 5 39 -16z"/> <path d="M1527 927 c-38 -30 -28 -59 17 -55 35 3 46 31 24 61 -12 16 -15 16 -41 -6z"/> <path d="M2363 882 c57 -57 67 -78 46 -99 -29 -29 14 -89 49 -67 26 16 28 60 3 76 -12 7 -21 17 -21 23 0 13 -112 125 -125 125 -5 0 16 -26 48 -58z m97 -121 c0 -11 -5 -23 -11 -27 -15 -9 -33 12 -26 30 9 23 37 20 37 -3z"/> <path d="M1720 920 c1 -8 7 -26 15 -40 12 -23 14 -23 21 -7 4 13 0 26 -15 40 -15 16 -21 18 -21 7z"/> <path d="M2140 910 c-15 -28 4 -60 35 -60 26 0 40 28 30 60 -4 13 -15 20 -30 20 -14 0 -29 -9 -35 -20z"/> <path d="M2539 928 c-1 -2 -2 -52 -3 -113 -3 -158 -38 -230 -146 -293 l-45 -27 -693 -5 c-651 -5 -694 -4 -709 13 -24 25 -69 22 -88 -7 -31 -47 23 -104 74 -76 12 6 21 15 21 20 0 6 252 10 685 10 657 0 686 1 737 20 90 33 158 103 186 190 6 19 12 87 13 150 1 99 -1 115 -15 118 -9 2 -16 2 -17 0z m-1619 -443 c17 -20 5 -45 -20 -45 -11 0 -23 7 -26 15 -6 15 11 45 26 45 4 0 13 -7 20 -15z"/> <path d="M1940 900 c-12 -22 -5 -60 10 -60 5 0 15 -2 22 -5 21 -8 41 41 28 66 -14 25 -46 24 -60 -1z"/> <path d="M422 793 c4 -105 8 -125 33 -176 49 -100 162 -166 283 -167 54 0 62 2 62 19 0 16 -10 19 -79 23 -175 10 -261 116 -261 323 0 90 -1 95 -21 95 -21 0 -21 -3 -17 -117z"/> <path d="M1608 893 c-22 -6 -30 -30 -18 -54 19 -34 40 -23 40 21 0 22 -1 39 -2 39 -2 -1 -10 -3 -20 -6z"/> <path d="M1450 855 c0 -28 4 -35 20 -35 12 0 22 9 26 24 7 31 -1 46 -27 46 -15 0 -19 -7 -19 -35z"/> <path d="M2240 877 c-41 -21 -37 -57 8 -71 21 -7 22 -4 22 38 0 25 -1 46 -2 46 -2 0 -14 -6 -28 -13z"/> <path d="M2100 840 c0 -22 2 -40 5 -40 11 0 25 43 20 60 -11 34 -25 22 -25 -20z"/> <path d="M1855 840 c-14 -44 44 -69 65 -29 9 15 8 24 -1 35 -18 21 -57 18 -64 -6z"/> <path d="M1510 830 c-23 -42 30 -81 60 -45 7 8 10 25 6 40 -8 31 -50 35 -66 5z"/> <path d="M1000 833 c-71 -13 -42 -43 42 -43 54 0 80 13 62 30 -12 10 -73 18 -104 13z"/> <path d="M2135 810 c-8 -26 11 -50 40 -50 24 0 38 29 28 56 -8 22 -61 18 -68 -6z"/> <path d="M1782 803 c-13 -24 3 -63 25 -63 27 0 46 36 33 60 -13 25 -46 26 -58 3z"/> <path d="M1937 799 c-3 -12 -2 -31 3 -42 7 -20 9 -19 24 15 20 47 20 48 -3 48 -11 0 -21 -9 -24 -21z"/> <path d="M1452 763 c3 -42 22 -54 38 -23 15 28 4 60 -21 60 -17 0 -20 -6 -17 -37z"/> <path d="M1590 780 c-14 -26 4 -63 28 -58 25 5 26 78 1 78 -10 0 -23 -9 -29 -20z"/> <path d="M950 770 c0 -25 29 -40 80 -40 46 0 80 14 80 33 0 10 -16 12 -61 9 -37 -3 -65 0 -72 7 -17 17 -27 13 -27 -9z"/> <path d="M2100 750 c0 -22 4 -40 9 -40 14 0 23 37 16 60 -11 34 -25 22 -25 -20z"/> <path d="M2220 775 c-18 -21 2 -65 30 -65 17 0 20 7 20 40 0 32 -4 40 -19 40 -10 0 -24 -7 -31 -15z"/> <path d="M1855 751 c-13 -41 25 -73 55 -46 9 8 20 12 24 8 10 -10 -5 29 -17 45 -15 19 -55 15 -62 -7z"/> <path d="M1505 730 c-9 -28 10 -57 36 -55 26 2 42 28 34 55 -9 28 -61 28 -70 0z"/> <path d="M2140 725 c-20 -24 -4 -52 30 -51 32 1 44 18 35 47 -8 23 -47 25 -65 4z"/> <path d="M952 708 c4 -30 54 -44 110 -32 35 7 44 14 46 34 3 20 1 23 -9 13 -15 -15 -115 -17 -124 -3 -11 18 -26 10 -23 -12z"/> <path d="M1800 726 c0 -20 22 -56 35 -56 18 0 19 19 1 43 -12 15 -36 24 -36 13z"/> <path d="M1452 693 c2 -10 14 -20 27 -21 19 -3 22 0 17 13 -3 9 -6 19 -6 21 0 2 -9 4 -21 4 -14 0 -19 -5 -17 -17z"/> <path d="M1597 703 c-16 -15 -6 -34 15 -31 29 4 38 38 10 38 -10 0 -22 -3 -25 -7z"/> <path d="M2227 694 c-4 -4 -7 -11 -7 -16 0 -13 50 -6 53 7 2 12 -36 19 -46 9z"/> <path d="M950 652 c0 -28 18 -38 72 -41 55 -3 88 12 88 40 0 17 -3 18 -21 8 -22 -11 -91 -8 -121 5 -14 6 -18 3 -18 -12z"/> <path d="M1028 409 c-23 -13 -23 -42 0 -62 24 -22 35 -21 57 3 18 19 31 20 407 20 l390 0 18 -22 c15 -20 21 -21 44 -10 35 16 36 58 1 74 -20 9 -28 8 -43 -5 -17 -15 -60 -17 -414 -17 -339 0 -397 2 -408 15 -14 17 -28 18 -52 4z m48 -20 c10 -17 -23 -46 -37 -32 -7 7 -9 19 -6 27 7 18 33 21 43 5z m872 -12 c4 -20 -25 -34 -40 -19 -15 15 -1 44 19 40 10 -2 19 -11 21 -21z"/> <path d="M92 138 c-30 -84 -29 -81 -9 -86 12 -2 17 3 17 17 0 29 50 29 68 0 26 -41 31 -4 9 63 -17 54 -26 68 -42 68 -15 0 -25 -14 -43 -62z m57 -15 c1 -7 -6 -13 -14 -13 -15 0 -21 40 -8 54 7 7 21 -18 22 -41z"/> <path d="M220 130 l0 -70 45 0 c48 0 72 22 55 51 -5 7 -7 22 -4 32 12 38 -5 57 -52 57 l-44 0 0 -70z m68 27 c2 -12 -3 -17 -17 -17 -15 0 -21 6 -21 21 0 25 33 22 38 -4z m7 -57 c0 -8 -10 -16 -22 -18 -18 -3 -23 2 -23 18 0 16 5 21 23 18 12 -2 22 -10 22 -18z"/> <path d="M355 130 l0 -70 41 0 c50 0 74 23 74 72 0 45 -25 68 -76 68 l-39 0 0 -70z m83 6 c4 -32 -13 -56 -39 -56 -16 0 -19 8 -19 43 0 52 5 58 33 48 14 -5 23 -18 25 -35z"/> <path d="M501 130 l0 -70 45 0 c24 0 44 5 44 10 0 6 -13 10 -30 10 -23 0 -30 4 -30 20 0 15 7 20 25 20 14 0 25 5 25 10 0 6 -12 10 -26 10 -19 0 -25 5 -22 17 2 11 12 18 27 18 13 0 26 6 28 13 3 8 -9 12 -41 12 l-45 0 0 -70z"/> <path d="M614 130 l0 -70 48 0 c26 0 48 5 48 10 0 6 -15 10 -34 10 l-34 0 5 60 c5 54 3 60 -13 60 -17 0 -19 -9 -20 -70z"/> <path d="M730 130 c0 -56 3 -70 15 -70 9 0 15 9 15 25 0 14 4 25 10 25 5 0 17 -11 26 -25 9 -14 23 -25 31 -25 13 0 13 3 0 24 -13 19 -14 30 -5 54 16 41 -2 62 -53 62 l-39 0 0 -70z m65 25 c0 -11 -8 -21 -17 -23 -14 -3 -18 3 -18 23 0 20 4 26 18 23 9 -2 17 -12 17 -23z"/> <path d="M895 188 c-2 -7 -13 -39 -24 -70 -19 -57 -19 -58 0 -58 10 0 19 7 19 15 0 10 10 15 30 15 20 0 30 -5 30 -15 0 -8 9 -15 20 -15 19 0 19 1 1 43 -10 23 -21 54 -25 70 -7 28 -43 39 -51 15z m38 -48 c5 -21 -7 -35 -22 -26 -10 7 -3 46 9 46 4 0 10 -9 13 -20z"/> <path d="M1010 130 c0 -57 3 -70 16 -70 11 0 15 8 12 28 -3 24 0 27 27 27 27 0 30 -3 27 -27 -2 -20 2 -28 13 -28 12 0 15 14 15 70 0 56 -3 70 -15 70 -11 0 -15 -8 -13 -27 3 -25 0 -28 -27 -28 -27 0 -30 3 -27 28 3 19 -1 27 -12 27 -13 0 -16 -13 -16 -70z"/> <path d="M1160 130 c0 -53 3 -70 14 -70 10 0 12 11 8 45 -3 27 -1 45 6 45 5 0 15 -20 21 -45 15 -60 37 -59 53 3 l13 47 5 -48 c8 -74 25 -61 28 21 3 71 2 73 -20 70 -16 -2 -24 -12 -28 -33 -4 -17 -12 -40 -18 -50 -12 -22 -10 -24 -32 48 -8 26 -17 37 -31 37 -17 0 -19 -8 -19 -70z"/> <path d="M1380 196 c0 -1 -11 -33 -24 -70 -23 -63 -23 -66 -5 -66 10 0 19 7 19 15 0 10 10 15 30 15 20 0 30 -5 30 -15 0 -8 8 -15 19 -15 17 0 17 4 -7 70 -19 53 -29 70 -43 70 -11 0 -19 -2 -19 -4z m32 -61 c2 -11 -3 -20 -9 -20 -7 0 -13 3 -13 8 0 4 0 17 0 29 0 26 17 13 22 -17z"/> <path d="M1490 130 c0 -49 4 -70 13 -70 8 0 11 15 8 51 -2 36 0 49 8 45 6 -4 11 -11 11 -17 0 -23 46 -79 66 -79 19 0 21 6 22 70 1 55 -2 70 -13 70 -10 0 -15 -15 -17 -52 l-3 -53 -30 52 c-18 32 -37 53 -47 53 -16 0 -18 -10 -18 -70z"/> <path d="M1700 130 c0 -56 3 -70 15 -70 11 0 15 13 16 53 l1 52 17 -52 c20 -68 42 -70 61 -5 l14 47 5 -48 c9 -70 23 -57 23 21 0 59 -2 67 -18 67 -14 0 -23 -13 -34 -49 -18 -55 -33 -49 -45 17 -6 30 -11 37 -31 37 -23 0 -24 -3 -24 -70z"/> <path d="M1906 143 c-10 -32 -21 -64 -23 -70 -3 -7 2 -13 11 -13 9 0 16 7 16 15 0 10 10 15 30 15 20 0 30 -5 30 -15 0 -8 9 -15 20 -15 20 0 26 11 13 24 -4 4 -15 31 -24 59 -11 37 -22 53 -36 55 -15 2 -23 -8 -37 -55z m46 -25 c-15 -15 -27 14 -17 40 6 15 8 15 18 -6 7 -16 7 -26 -1 -34z"/> <path d="M2030 130 c0 -56 3 -70 15 -70 10 0 15 10 15 30 0 27 3 30 31 30 29 0 31 -2 27 -30 -4 -23 -1 -30 12 -30 14 0 17 12 18 70 1 55 -2 70 -14 70 -9 0 -14 -10 -14 -30 0 -27 -3 -30 -30 -30 -27 0 -30 3 -30 30 0 20 -5 30 -15 30 -12 0 -15 -14 -15 -70z"/> <path d="M2191 130 c-25 -76 -23 -95 6 -61 20 24 61 28 69 6 4 -8 13 -15 21 -15 8 0 13 6 10 13 -2 6 -13 38 -23 69 -15 46 -23 58 -40 58 -16 0 -25 -13 -43 -70z m58 -7 c1 -7 -6 -13 -14 -13 -16 0 -19 17 -8 46 6 16 7 16 14 -2 4 -10 8 -25 8 -31z"/> <path d="M2320 131 c0 -56 3 -71 15 -71 11 0 15 13 16 53 l1 52 15 -53 c20 -66 40 -66 60 1 18 61 27 60 21 -3 -4 -41 -2 -50 11 -50 13 0 16 12 16 70 0 66 -1 70 -22 70 -18 0 -25 -9 -34 -42 -17 -65 -21 -66 -39 -12 -12 36 -22 50 -38 52 -21 3 -22 0 -22 -67z"/> <path d="M2515 169 c-18 -33 -13 -80 10 -99 7 -6 28 -12 46 -12 44 -1 73 34 66 79 -8 45 -28 63 -71 63 -29 0 -38 -5 -51 -31z m80 -5 c34 -35 -3 -103 -42 -78 -22 14 -28 46 -13 73 13 25 33 27 55 5z"/> <path d="M2668 138 c2 -35 8 -67 12 -71 12 -13 68 -11 85 3 21 17 22 130 0 130 -10 0 -15 -15 -17 -57 -2 -47 -6 -58 -22 -61 -26 -5 -37 16 -34 68 2 34 -2 46 -13 48 -13 2 -15 -8 -11 -60z"/> <path d="M2815 130 l0 -70 41 0 c50 0 77 26 76 72 -1 42 -32 68 -81 68 l-36 0 0 -70z m66 40 c37 -20 19 -90 -23 -90 -15 0 -18 8 -18 43 0 57 7 65 41 47z"/> </g> </svg> 