 <svg  version="1.0" xmlns="http://www.w3.org/2000/svg"  width="300.000000pt" height="300.000000pt" viewBox="0 0 300.000000 300.000000"  preserveAspectRatio="xMidYMid meet">  <g transform="translate(0.000000,300.000000) scale(0.100000,-0.100000)" fill="#2563eb" stroke="none"> <path d="M1211 2031 c-8 -5 -11 -16 -8 -25 7 -18 42 -22 52 -6 4 6 95 10 240 10 145 0 236 -4 240 -10 8 -13 42 -13 51 1 3 6 -1 18 -10 27 -12 13 -19 14 -28 4 -15 -15 -494 -17 -503 -2 -8 12 -16 12 -34 1z"/> <path d="M1835 1981 c-4 -8 -142 -11 -426 -11 -397 0 -422 -1 -458 -20 -76 -38 -111 -104 -111 -207 0 -41 4 -53 15 -53 12 0 15 14 15 65 0 73 13 105 60 150 l31 30 430 3 c280 2 436 -1 448 -8 30 -15 53 -2 49 29 -3 27 -40 42 -53 22z"/> <path d="M1920 1956 c0 -13 10 -16 49 -16 95 0 161 -76 161 -187 0 -35 4 -63 10 -63 6 0 10 31 10 73 0 63 -4 79 -29 118 -33 52 -82 80 -153 87 -40 4 -48 2 -48 -12z"/> <path d="M1104 1726 c-26 -67 -66 -170 -90 -229 l-43 -108 57 3 56 3 15 48 c13 43 17 47 47 47 53 0 64 8 64 50 0 21 7 43 15 50 12 10 15 10 15 0 0 -9 4 -9 17 1 11 10 14 10 9 2 -9 -16 6 -17 20 -3 7 7 49 10 105 8 l94 -3 -3 -29 -4 -28 46 38 c25 21 44 38 43 39 -1 1 -22 16 -45 35 l-44 33 4 -29 3 -29 -94 -3 c-77 -2 -97 0 -113 15 -18 16 -19 16 -12 -3 7 -17 6 -18 -10 -4 -10 8 -24 15 -32 16 -16 3 -19 -12 -4 -21 6 -3 10 -1 10 6 0 7 3 10 6 6 13 -12 -37 -67 -62 -67 -13 0 -24 3 -24 6 0 11 53 154 57 154 2 0 9 -13 14 -30 8 -22 17 -30 34 -30 13 0 27 -4 30 -10 7 -11 45 -14 45 -3 0 4 -16 48 -36 98 l-36 91 -53 0 -54 1 -47 -121z m77 80 c-9 -11 -9 -15 1 -19 7 -2 10 -8 6 -12 -4 -4 -14 -2 -23 5 -12 10 -13 16 -4 26 6 8 16 14 21 14 6 0 6 -6 -1 -14z m48 0 c10 -12 8 -17 -8 -26 -14 -7 -21 -7 -21 0 0 5 6 10 13 11 10 0 10 2 0 6 -15 5 -18 23 -4 23 5 0 14 -6 20 -14z m-76 -53 c-6 -2 -17 -24 -24 -49 -7 -24 -17 -44 -21 -44 -11 0 -10 2 6 41 7 19 16 42 19 52 4 11 12 15 19 11 8 -5 9 -9 1 -11z m110 -13 c6 -24 -15 -27 -34 -4 -10 13 -10 17 1 24 18 11 26 6 33 -20z m-76 3 c-4 -10 -11 -38 -18 -63 -21 -83 -27 -92 -48 -80 -11 5 -22 10 -24 10 -7 0 -50 -110 -50 -126 0 -8 -4 -14 -9 -14 -12 0 -10 13 14 77 20 54 50 93 69 93 5 0 6 -7 3 -15 -4 -8 -2 -15 4 -15 16 0 23 31 11 46 -7 9 -8 14 -1 14 5 0 16 20 23 45 7 25 17 45 22 45 5 0 7 -8 4 -17z m-70 -198 c-4 -8 -2 -17 3 -20 5 -3 11 4 15 15 7 23 23 25 48 5 18 -13 18 -14 -2 -25 -12 -6 -21 -7 -21 -1 0 5 5 11 12 13 8 3 6 7 -4 11 -12 4 -19 0 -23 -14 -7 -22 -23 -24 -47 -5 -13 10 -15 15 -6 24 17 17 31 15 25 -3z m-44 -121 c-1 -5 -10 -10 -20 -11 -10 -2 -12 0 -5 3 6 3 10 10 6 15 -9 15 -22 10 -29 -11 -3 -11 -11 -20 -16 -20 -5 0 -2 14 6 31 15 29 18 30 38 16 12 -8 21 -18 20 -23z"/> <path d="M1470 1839 c0 -5 7 -9 15 -9 8 0 15 -4 15 -10 0 -5 9 -10 21 -10 36 0 19 35 -19 37 -17 1 -32 -3 -32 -8z"/> <path d="M1550 1841 c0 -5 10 -11 23 -13 15 -2 22 -10 24 -28 0 -14 1 -31 2 -37 1 -7 8 -13 16 -13 19 0 19 -1 -5 54 -14 33 -25 46 -40 46 -11 0 -20 -4 -20 -9z"/> <path d="M1840 1830 c-14 -27 -5 -39 15 -19 9 9 11 19 6 28 -7 11 -11 9 -21 -9z"/> <path d="M1917 1837 c-8 -20 9 -41 27 -34 10 4 16 1 16 -7 0 -9 -7 -12 -20 -9 -16 4 -20 0 -20 -17 0 -17 4 -21 20 -17 13 3 20 0 20 -10 0 -8 -5 -11 -10 -8 -16 10 -40 -14 -33 -32 3 -8 13 -13 24 -10 12 3 19 0 19 -9 0 -8 -6 -11 -16 -7 -16 6 -37 -15 -28 -29 3 -4 14 -8 25 -8 10 0 19 -6 19 -14 0 -9 -7 -12 -19 -9 -22 6 -38 -25 -16 -33 8 -3 19 -3 25 1 15 9 12 -6 -5 -25 -14 -15 -14 -18 0 -30 14 -11 13 -14 -1 -25 -19 -13 -11 -35 11 -35 12 0 14 32 12 183 -1 110 -6 185 -12 189 -16 12 -32 9 -38 -5z"/> <path d="M900 1805 c-22 -27 79 -135 126 -135 12 0 26 5 29 10 4 6 -8 10 -27 10 -46 0 -108 60 -88 85 10 12 10 18 0 30 -16 19 -24 19 -40 0z"/> <path d="M1550 1800 c0 -13 7 -20 20 -20 13 0 20 7 20 20 0 13 -7 20 -20 20 -13 0 -20 -7 -20 -20z"/> <path d="M1867 1805 c-4 -8 -16 -15 -27 -15 -11 0 -21 -4 -21 -10 -3 -20 -4 -25 -13 -38 -5 -8 -1 -21 10 -33 21 -23 33 -24 41 -3 8 21 -17 36 -36 21 -11 -10 -13 -9 -9 3 2 8 14 16 26 18 13 2 22 11 22 21 0 12 7 17 23 17 13 -1 22 5 22 14 0 20 -31 25 -38 5z"/> <path d="M2052 1808 c-8 -8 -8 -17 -1 -31 9 -16 5 -26 -27 -58 -21 -21 -33 -39 -27 -39 14 0 103 100 103 116 0 7 -7 15 -16 18 -20 8 -18 8 -32 -6z"/> <path d="M1500 1769 c0 -25 33 -22 38 4 2 12 -3 17 -17 17 -15 0 -21 -6 -21 -21z"/> <path d="M1470 1745 c0 -14 4 -25 9 -25 12 0 19 21 13 38 -8 21 -22 13 -22 -13z"/> <path d="M1553 1754 c-7 -19 11 -39 26 -30 16 10 13 33 -4 40 -9 3 -18 -1 -22 -10z"/> <path d="M1870 1740 c0 -15 5 -20 18 -18 9 2 17 10 17 18 0 8 -8 16 -17 18 -13 2 -18 -3 -18 -18z"/> <path d="M1507 1734 c-15 -15 -7 -45 11 -42 9 2 17 12 17 22 0 20 -16 31 -28 20z"/> <path d="M1538 1689 c-17 -18 -17 -19 11 -19 21 0 32 -6 36 -20 4 -11 11 -18 16 -15 17 11 9 36 -13 45 -13 5 -17 9 -10 9 7 1 10 6 7 11 -9 15 -28 11 -47 -11z"/> <path d="M1617 1697 c-8 -20 9 -41 26 -34 10 4 17 -2 21 -16 3 -12 8 -19 11 -16 3 3 -2 22 -10 42 -15 37 -38 48 -48 24z"/> <path d="M1782 1685 c-10 -21 -9 -25 4 -25 18 0 30 28 17 41 -6 6 -14 0 -21 -16z"/> <path d="M1872 1698 c-17 -17 -15 -25 8 -31 23 -6 33 5 24 27 -7 19 -16 20 -32 4z"/> <path d="M744 1675 c-3 -8 -3 -19 1 -25 7 -11 45 -14 45 -2 0 16 67 5 94 -16 24 -18 40 -22 95 -20 l66 2 -66 3 c-55 3 -70 8 -89 28 -17 18 -34 25 -61 25 -21 0 -41 5 -44 10 -9 15 -35 12 -41 -5z"/> <path d="M2206 1682 c-6 -11 -93 -24 -149 -22 -21 0 -46 -4 -55 -10 -15 -9 48 -9 153 1 11 2 37 -1 58 -6 37 -7 39 -6 35 16 -3 24 -31 38 -42 21z"/> <path d="M1821 1666 c-9 -10 -8 -16 4 -26 19 -16 41 1 32 24 -8 20 -21 20 -36 2z"/> <path d="M922 1650 c3 -10 21 -13 64 -11 73 3 85 11 16 11 -27 0 -58 3 -68 7 -11 4 -15 2 -12 -7z"/> <path d="M1613 1633 c-3 -10 -7 -20 -9 -23 -1 -3 6 -6 16 -7 22 -2 45 22 35 37 -10 16 -35 12 -42 -7z"/> <path d="M1767 1636 c-8 -20 20 -43 35 -28 14 14 3 42 -16 42 -7 0 -16 -6 -19 -14z"/> <path d="M1870 1625 c0 -28 24 -34 34 -9 8 20 -1 34 -20 34 -8 0 -14 -10 -14 -25z"/> <path d="M1660 1600 c0 -14 7 -20 21 -20 15 0 19 4 15 16 -3 9 -6 18 -6 20 0 2 -7 4 -15 4 -8 0 -15 -9 -15 -20z"/> <path d="M1817 1605 c-8 -19 13 -31 24 -14 13 20 11 29 -5 29 -8 0 -16 -7 -19 -15z"/> <path d="M2037 1611 c35 -4 59 -14 73 -29 13 -14 33 -22 53 -22 18 0 38 -5 44 -11 16 -16 43 -4 43 20 0 22 -21 33 -41 20 -26 -16 -85 -10 -104 11 -14 15 -30 20 -69 19 l-51 -2 52 -6z"/> <path d="M758 1589 c-10 -6 -18 -17 -18 -25 0 -19 27 -29 43 -15 7 6 64 13 125 17 62 4 112 11 112 16 0 10 -108 10 -172 -1 -34 -5 -51 -4 -60 5 -9 9 -18 10 -30 3z"/> <path d="M1617 1570 c3 -12 12 -20 22 -18 24 5 19 33 -6 36 -17 3 -20 -1 -16 -18z"/> <path d="M1770 1570 c0 -13 7 -20 19 -20 11 0 21 -5 23 -12 3 -7 7 -5 11 6 4 9 3 15 -2 12 -5 -3 -11 3 -14 14 -7 26 -37 26 -37 0z"/> <path d="M1870 1570 c0 -15 5 -20 18 -18 9 2 17 10 17 18 0 8 -8 16 -17 18 -13 2 -18 -3 -18 -18z"/> <path d="M2015 1583 c17 -3 35 -9 41 -14 8 -6 14 -4 18 6 4 12 -3 15 -42 14 -34 -2 -39 -3 -17 -6z"/> <path d="M1554 1565 c-3 -8 -3 -19 1 -25 11 -18 25 -11 25 15 0 27 -17 34 -26 10z"/> <path d="M1285 1561 c-3 -6 -17 -11 -31 -11 -19 0 -24 -5 -24 -25 0 -19 7 -26 28 -31 15 -3 32 -7 38 -9 6 -2 17 -24 24 -49 l13 -46 53 0 54 0 -21 53 c-12 28 -27 68 -34 87 -11 31 -16 35 -53 38 -22 2 -43 -2 -47 -7z m77 -61 c19 -40 23 -70 8 -70 -6 0 -14 10 -19 23 -5 12 -18 33 -30 46 -11 13 -18 28 -15 33 11 18 39 2 56 -32z"/> <path d="M1660 1546 c0 -8 5 -18 10 -21 13 -8 42 14 34 26 -9 15 -44 10 -44 -5z"/> <path d="M1720 1535 c-7 -14 -22 -25 -32 -25 -10 0 -18 -4 -18 -10 0 -5 6 -10 14 -10 8 0 18 5 21 10 3 6 14 10 25 10 16 0 30 18 30 41 0 19 -27 8 -40 -16z"/> <path d="M940 1494 c-47 -52 -50 -58 -36 -73 15 -14 17 -14 33 1 14 14 14 20 3 33 -11 14 -8 21 25 55 22 22 36 40 33 40 -3 0 -29 -25 -58 -56z"/> <path d="M1518 1539 c-19 -10 -14 -39 7 -39 16 0 29 30 18 41 -4 4 -16 3 -25 -2z"/> <path d="M2025 1510 c32 -33 36 -41 25 -55 -10 -12 -10 -18 0 -30 7 -8 18 -15 25 -15 20 0 26 28 10 44 -8 8 -15 19 -15 23 0 12 -63 73 -75 73 -5 0 8 -18 30 -40z"/> <path d="M1872 1508 c-1 -40 21 -73 43 -64 23 8 13 31 -14 30 -13 0 -21 5 -21 16 0 11 8 16 23 16 26 -1 31 27 5 32 -10 2 -18 -2 -18 -10 0 -11 -2 -11 -9 0 -5 8 -8 1 -9 -20z"/> <path d="M2130 1473 c0 -106 -48 -173 -136 -193 -21 -5 -214 -10 -427 -10 -327 0 -391 2 -411 15 -30 20 -62 0 -52 -33 8 -23 44 -30 62 -12 6 6 178 10 435 12 l425 3 42 28 c60 39 82 89 82 182 0 43 -4 75 -10 75 -6 0 -10 -29 -10 -67z"/> <path d="M840 1478 c0 -142 77 -228 204 -228 59 0 39 24 -25 30 -101 10 -149 69 -149 184 0 52 -3 66 -15 66 -11 0 -15 -12 -15 -52z"/> <path d="M1765 1520 c-4 -6 -1 -17 5 -25 10 -12 10 -18 0 -30 -9 -11 -10 -19 -3 -26 11 -11 46 67 37 82 -7 12 -31 11 -39 -1z"/> <path d="M1470 1495 c0 -14 4 -25 9 -25 12 0 23 29 15 41 -10 18 -24 9 -24 -16z"/> <path d="M1555 1510 c-3 -5 -1 -18 4 -28 7 -13 7 -22 -1 -30 -11 -11 -3 -32 13 -32 5 0 9 23 9 50 0 46 -11 63 -25 40z"/> <path d="M1715 1490 c-4 -7 -3 -16 3 -22 14 -14 45 -2 40 15 -6 16 -34 21 -43 7z"/> <path d="M1505 1480 c-4 -7 -3 -16 3 -22 14 -14 45 -2 40 15 -6 16 -34 21 -43 7z"/> <path d="M1650 1482 c0 -7 5 -12 12 -12 6 0 9 -3 5 -6 -3 -4 3 -25 15 -48 12 -22 23 -35 26 -28 2 7 -1 19 -8 26 -7 10 -8 16 0 21 17 10 11 35 -8 35 -10 0 -23 5 -30 12 -9 9 -12 9 -12 0z"/> <path d="M1172 1453 c3 -24 8 -29 37 -31 18 -2 38 1 44 7 17 17 5 21 -34 12 -27 -6 -36 -5 -36 5 0 9 13 14 39 14 21 0 38 5 38 10 0 6 -21 10 -46 10 -44 0 -45 -1 -42 -27z"/> <path d="M1938 1448 c-7 -19 2 -38 18 -38 8 0 14 10 14 25 0 26 -24 35 -32 13z"/> <path d="M1714 1429 c-10 -16 11 -32 34 -24 13 4 19 12 15 21 -6 16 -39 19 -49 3z"/> <path d="M1504 1416 c-3 -8 -12 -12 -20 -9 -8 3 -14 0 -14 -6 0 -6 16 -9 38 -8 20 2 45 -1 55 -5 12 -7 17 -4 17 8 0 10 -5 14 -14 11 -8 -3 -17 1 -20 9 -3 8 -12 14 -21 14 -9 0 -18 -6 -21 -14z"/> <path d="M1878 1410 c-10 -11 -13 -22 -8 -25 6 -4 10 -2 10 3 0 5 12 7 26 4 21 -4 25 -1 22 14 -4 25 -29 27 -50 4z"/> <path d="M1167 1403 c6 -15 29 -20 66 -15 47 7 31 27 -22 27 -34 0 -47 -4 -44 -12z"/> <path d="M1166 1365 c9 -21 94 -21 94 0 0 15 -19 14 -68 -1 -7 -2 -10 1 -7 6 3 6 -1 10 -9 10 -10 0 -13 -6 -10 -15z"/> <path d="M1204 1215 c-3 -8 -3 -19 1 -25 8 -13 45 -13 45 0 0 6 88 10 245 10 167 0 245 -3 245 -11 0 -18 45 -5 48 14 4 22 -25 34 -49 19 -24 -15 -489 -17 -489 -2 0 16 -40 12 -46 -5z"/> <path d="M643 1058 c-6 -24 -9 -45 -6 -48 3 -3 8 1 10 8 3 6 13 12 23 12 10 0 20 -6 23 -12 2 -7 7 -11 10 -8 10 9 -20 85 -35 88 -9 2 -18 -13 -25 -40z"/> <path d="M720 1055 c0 -40 2 -45 23 -45 33 0 44 15 39 55 -4 31 -8 35 -33 35 -28 0 -29 -2 -29 -45z"/> <path d="M800 1056 c0 -41 2 -46 23 -46 36 0 49 14 45 51 -3 30 -7 34 -35 37 -33 3 -33 3 -33 -42z m55 -1 c0 -11 -8 -21 -17 -23 -14 -3 -18 3 -18 23 0 20 4 26 18 23 9 -2 17 -12 17 -23z"/> <path d="M892 1055 c0 -41 2 -45 24 -45 13 0 24 5 24 10 0 6 -7 10 -15 10 -8 0 -15 5 -15 10 0 6 7 10 15 10 8 0 15 4 15 10 0 5 -7 7 -15 4 -8 -4 -15 -1 -15 5 0 6 6 11 14 11 8 0 18 5 21 10 4 6 -6 10 -24 10 -28 0 -29 -2 -29 -45z"/> <path d="M960 1055 c0 -43 1 -45 30 -45 17 0 30 5 30 10 0 6 -9 10 -20 10 -16 0 -20 7 -20 35 0 19 -4 35 -10 35 -5 0 -10 -20 -10 -45z"/> <path d="M1030 1055 c0 -45 20 -66 21 -22 l0 22 16 -22 c19 -29 38 -30 23 -2 -8 14 -8 24 -1 33 14 17 -5 36 -36 36 -21 0 -23 -5 -23 -45z"/> <path d="M1121 1059 c-13 -42 -7 -65 9 -39 8 13 13 13 31 2 11 -7 23 -12 25 -9 8 7 -29 87 -41 87 -6 0 -17 -18 -24 -41z"/> <path d="M1200 1055 c0 -25 5 -45 10 -45 6 0 10 9 10 20 0 11 7 20 15 20 8 0 15 -9 15 -20 0 -11 5 -20 10 -20 6 0 10 20 10 45 0 25 -4 45 -10 45 -5 0 -10 -9 -10 -20 0 -11 -7 -20 -15 -20 -8 0 -15 9 -15 20 0 11 -4 20 -10 20 -5 0 -10 -20 -10 -45z"/> <path d="M1292 1055 c-1 -25 2 -45 8 -45 5 0 10 12 11 28 l1 27 10 -27 c5 -16 13 -28 17 -28 4 0 12 12 18 28 l11 27 1 -28 c2 -43 21 -21 21 24 0 49 -23 53 -40 7 l-12 -33 -9 33 c-14 48 -35 41 -37 -13z"/> <path d="M1421 1078 c-19 -52 -22 -68 -12 -68 6 0 11 5 11 10 0 14 38 12 43 -2 2 -7 7 -10 11 -7 9 8 -18 82 -32 87 -7 2 -16 -7 -21 -20z"/> <path d="M1490 1055 c0 -25 5 -45 10 -45 6 0 10 15 10 33 l0 32 20 -32 c27 -45 40 -41 40 12 0 49 -16 62 -22 18 l-4 -28 -14 28 c-21 43 -40 34 -40 -18z"/> <path d="M1620 1055 c0 -48 19 -64 21 -17 l1 27 10 -27 c5 -16 13 -28 17 -28 4 0 12 12 18 28 l11 27 1 -29 c1 -41 13 -25 16 23 4 47 -20 59 -31 16 -3 -14 -10 -25 -14 -25 -4 0 -11 11 -14 25 -11 44 -36 31 -36 -20z"/> <path d="M1743 1058 c-6 -24 -9 -45 -6 -48 3 -3 8 1 10 8 3 6 13 12 23 12 10 0 20 -6 23 -12 2 -7 7 -10 11 -7 10 9 -20 84 -35 87 -10 2 -19 -12 -26 -40z"/> <path d="M1820 1055 c0 -25 5 -45 10 -45 6 0 10 9 10 21 0 14 5 19 18 17 10 -2 16 -11 14 -21 -2 -9 2 -17 8 -17 5 0 10 13 10 29 0 16 3 36 6 45 4 11 1 16 -10 16 -10 0 -16 -7 -14 -17 2 -10 -4 -19 -14 -21 -13 -2 -18 3 -18 17 0 12 -4 21 -10 21 -5 0 -10 -20 -10 -45z"/> <path d="M1922 1061 c-15 -49 -15 -58 0 -43 16 16 45 15 51 0 11 -26 7 20 -4 51 -15 42 -33 39 -47 -8z"/> <path d="M2000 1055 c0 -45 19 -66 21 -22 l0 22 9 -22 c12 -30 17 -29 35 10 l15 32 -6 -32 c-3 -21 -1 -33 5 -33 6 0 11 19 11 45 0 53 -14 58 -34 13 l-14 -33 -7 33 c-11 50 -35 41 -35 -13z"/> <path d="M2120 1086 c-28 -35 11 -93 48 -70 35 22 22 84 -18 84 -10 0 -23 -7 -30 -14z m50 -31 c0 -18 -5 -25 -20 -25 -15 0 -20 7 -20 25 0 18 5 25 20 25 15 0 20 -7 20 -25z"/> <path d="M2210 1060 c0 -44 20 -61 49 -43 18 11 28 83 12 83 -6 0 -11 -16 -11 -35 0 -24 -5 -35 -15 -35 -10 0 -15 11 -15 35 0 19 -4 35 -10 35 -5 0 -10 -18 -10 -40z"/> <path d="M2300 1056 c0 -42 2 -46 24 -46 14 0 32 10 40 22 13 19 14 25 2 43 -7 11 -25 21 -40 23 -25 3 -26 1 -26 -42z m50 -1 c0 -16 -6 -25 -15 -25 -9 0 -15 9 -15 25 0 16 6 25 15 25 9 0 15 -9 15 -25z"/> </g> </svg> 